<svg xmlns="http://www.w3.org/2000/svg" xmlns:xlink="http://www.w3.org/1999/xlink" width="35.185" height="24.559" viewBox="0 0 35.185 24.559"><defs><clipPath id="a"><rect width="35.185" height="24.559" fill="none"/></clipPath></defs><g transform="translate(0 0)"><g transform="translate(0 0)" clip-path="url(#a)"><path d="M35.185,2.618V8.178H0V2.618A2.635,2.635,0,0,1,.909.63,2.579,2.579,0,0,1,2.617,0H32.569a2.621,2.621,0,0,1,2.617,2.617" transform="translate(0 0)" fill="#1e692e"/><rect width="35.185" height="8.184" transform="translate(0 8.181)" fill="#fff"/><path d="M35.185,18.886v5.573a2.621,2.621,0,0,1-2.617,2.617H2.617a2.579,2.579,0,0,1-1.708-.629A2.635,2.635,0,0,1,0,24.459V18.886Z" transform="translate(0 -2.517)" fill="#040504"/><path d="M2.046,0H9.522V24.56H2.046A2.047,2.047,0,0,1,0,22.513V2.05A2.047,2.047,0,0,1,2.046,0" transform="translate(0 0)" fill="#e5001d"/></g></g></svg>