<svg xmlns="http://www.w3.org/2000/svg" xmlns:xlink="http://www.w3.org/1999/xlink" width="35.185" height="24.56" viewBox="0 0 35.185 24.56"><defs><clipPath id="a"><path d="M2.938,0H32.247a2.938,2.938,0,0,1,2.938,2.938V21.622a2.938,2.938,0,0,1-2.938,2.938H2.936A2.936,2.936,0,0,1,0,21.624V2.938A2.938,2.938,0,0,1,2.938,0Z" fill="none"/></clipPath></defs><g transform="translate(0 -0.088)"><g transform="translate(0 0.088)" clip-path="url(#a)"><path d="M35.185.866V2.246H0V.866A3.19,3.19,0,0,1,.113,0h34.96a3.137,3.137,0,0,1,.113.866" transform="translate(0 -0.077)" fill="#ec1c29"/><rect width="35.185" height="2.246" transform="translate(0 4.417)" fill="#ec1c29"/><rect width="35.185" height="2.246" transform="translate(0 2.17)" fill="#fff"/><rect width="35.185" height="2.246" transform="translate(0 8.91)" fill="#ec1c29"/><rect width="35.185" height="2.246" transform="translate(0 6.663)" fill="#fff"/><rect width="35.185" height="2.246" transform="translate(0 13.403)" fill="#ec1c29"/><rect width="35.185" height="2.246" transform="translate(0 11.157)" fill="#fff"/><rect width="35.185" height="2.246" transform="translate(0 17.896)" fill="#ec1c29"/><rect width="35.185" height="2.246" transform="translate(0 15.65)" fill="#fff"/><path d="M35.185,25.923V27.3a3.506,3.506,0,0,1-.1.866H.113A3.19,3.19,0,0,1,0,27.3V25.923Z" transform="translate(0 -3.534)" fill="#ec1c29"/><rect width="35.185" height="2.246" transform="translate(0 20.143)" fill="#fff"/><path d="M2.05.094H20.213V13.513H0V2.14A2.046,2.046,0,0,1,2.05.094" transform="translate(-0.001 -0.089)" fill="#404898"/><path d="M4.832,3.485A.536.536,0,1,1,4.3,2.949a.536.536,0,0,1,.536.536" transform="translate(-0.502 -0.47)" fill="#fff"/><path d="M8.6,3.485a.536.536,0,1,1-.536-.536.536.536,0,0,1,.536.536" transform="translate(-1.003 -0.47)" fill="#fff"/><path d="M12.358,3.485a.536.536,0,1,1-.536-.536.536.536,0,0,1,.536.536" transform="translate(-1.505 -0.47)" fill="#fff"/><path d="M16.121,3.485a.536.536,0,1,1-.536-.536.536.536,0,0,1,.536.536" transform="translate(-2.007 -0.47)" fill="#fff"/><path d="M20.135,3.485a.536.536,0,1,1-.536-.536.536.536,0,0,1,.536.536" transform="translate(-2.543 -0.47)" fill="#fff"/><path d="M4.832,7.848A.536.536,0,1,1,4.3,7.312a.536.536,0,0,1,.536.536" transform="translate(-0.502 -1.052)" fill="#fff"/><path d="M8.6,7.848a.536.536,0,1,1-.536-.536.536.536,0,0,1,.536.536" transform="translate(-1.003 -1.052)" fill="#fff"/><path d="M12.358,7.848a.536.536,0,1,1-.536-.536.536.536,0,0,1,.536.536" transform="translate(-1.505 -1.052)" fill="#fff"/><path d="M16.121,7.848a.536.536,0,1,1-.536-.536.536.536,0,0,1,.536.536" transform="translate(-2.007 -1.052)" fill="#fff"/><path d="M20.135,7.848a.536.536,0,1,1-.536-.536.536.536,0,0,1,.536.536" transform="translate(-2.543 -1.052)" fill="#fff"/><path d="M4.832,12.211a.536.536,0,1,1-.536-.536.536.536,0,0,1,.536.536" transform="translate(-0.502 -1.634)" fill="#fff"/><path d="M8.6,12.211a.536.536,0,1,1-.536-.536.536.536,0,0,1,.536.536" transform="translate(-1.003 -1.634)" fill="#fff"/><path d="M12.358,12.211a.536.536,0,1,1-.536-.536.536.536,0,0,1,.536.536" transform="translate(-1.505 -1.634)" fill="#fff"/><path d="M16.121,12.211a.536.536,0,1,1-.536-.536.536.536,0,0,1,.536.536" transform="translate(-2.007 -1.634)" fill="#fff"/><path d="M20.135,12.211a.536.536,0,1,1-.536-.536.536.536,0,0,1,.536.536" transform="translate(-2.543 -1.634)" fill="#fff"/><path d="M6.627,10.029a.536.536,0,1,1-.536-.536.536.536,0,0,1,.536.536" transform="translate(-0.741 -1.343)" fill="#fff"/><path d="M10.389,10.029a.536.536,0,1,1-.536-.536.536.536,0,0,1,.536.536" transform="translate(-1.243 -1.343)" fill="#fff"/><path d="M14.152,10.029a.536.536,0,1,1-.536-.536.536.536,0,0,1,.536.536" transform="translate(-1.745 -1.343)" fill="#fff"/><path d="M18.166,10.029a.536.536,0,1,1-.536-.536.536.536,0,0,1,.536.536" transform="translate(-2.28 -1.343)" fill="#fff"/><path d="M6.627,5.676a.536.536,0,1,1-.536-.536.536.536,0,0,1,.536.536" transform="translate(-0.741 -0.762)" fill="#fff"/><path d="M10.389,5.676a.536.536,0,1,1-.536-.536.536.536,0,0,1,.536.536" transform="translate(-1.243 -0.762)" fill="#fff"/><path d="M14.152,5.676a.536.536,0,1,1-.536-.536.536.536,0,0,1,.536.536" transform="translate(-1.745 -0.762)" fill="#fff"/><path d="M18.166,5.676a.536.536,0,1,1-.536-.536.536.536,0,0,1,.536.536" transform="translate(-2.28 -0.762)" fill="#fff"/></g></g></svg>