<?xml version="1.0" encoding="UTF-8"?>
<svg id="Layer_2" data-name="Layer 2" xmlns="http://www.w3.org/2000/svg" viewBox="0 0 274.92 351.98">
  <defs>
    <style>
      .cls-1 {
        fill: #6d28d9;
      }

      .cls-2, .cls-3 {
        fill: none;
      }

      .cls-3 {
        stroke: #6d28d9;
        stroke-miterlimit: 10;
        stroke-width: 15px;
      }
    </style>
  </defs>
  <polyline class="cls-3" points="69.88 328.34 7.5 328.34 7.5 95.06 188.98 95.06"/>
  <polyline class="cls-3" points="117.88 328.34 157.04 328.34 267.42 328.34 267.42 95.06 188.98 95.06"/>
  <path class="cls-3" d="m48.18,230.42c-2.19,7.74,0,2.36,0,10.8,0,1.25.03,2.5.09,3.74,1.67,40.92,33.87,84.34,72.99,83.38"/>
  <path class="cls-3" d="m58.44,199.64c14.95-28.36,44.72-47.7,79.02-47.7,42.84,0,78.63,30.17,87.28,70.42"/>
  <path class="cls-3" d="m157.04,328.34c32.68-7.31,58.6-32.54,66.89-64.83"/>
  <polygon class="cls-1" points="48.18 211.06 28.61 244.96 67.75 244.96 48.18 211.06"/>
  <polygon class="cls-1" points="223.74 254.26 243.31 220.36 204.17 220.36 223.74 254.26"/>
  <line class="cls-2" x1="46.74" y1="178.22" x2="78.78" y2="236.9"/>
  <line class="cls-2" x1="46.24" y1="304.7" x2="93.52" y2="351.98"/>
  <path class="cls-3" d="m83.14,60.42c0-29.23,23.69-52.92,52.92-52.92s52.92,23.69,52.92,52.92"/>
  <polyline class="cls-3" points="83.14 128.54 83.14 95.06 83.14 60.42"/>
  <polyline class="cls-3" points="188.98 128.54 188.98 95.06 188.98 60.42"/>
</svg>